<svg xmlns="http://www.w3.org/2000/svg" version="1.1" xmlns:xlink="http://www.w3.org/1999/xlink" width="512" height="512" x="0" y="0" viewBox="0 0 512 512" style="enable-background:new 0 0 512 512" xml:space="preserve" class=""><g><path d="M436.989 360.931a44.9 44.9 0 0 1-37.439-20.038l-19.63-29.441c-17.614 38.602-54.001 68.023-96.91 76.767-.337.059-.659.132-.981.22-16.962 3.34-34.671 3.369-52.453-.029-47.253-9.477-86.22-42.946-101.878-87.475h7.31c11.935 0 19.12-13.342 12.479-23.319l-59.996-89.994c-5.566-8.349-19.394-8.349-24.959 0L2.536 277.617c-6.618 9.894.479 23.319 12.479 23.319h19.511c20.51 100.579 111.238 179.989 222.375 179.989 60.809 0 120.857-25.145 163.89-70.796 15.114-16.176 27.773-34.678 37.723-54.713-6.508 3.547-13.868 5.515-21.525 5.515zM496.985 210.94h-19.496C454.259 96.601 343.768 17.666 225.709 32.973 147.186 44.521 85.617 92.651 53.753 157.007c19.514-9.57 46.101-4.933 58.698 13.975l19.708 29.562c17.282-37.82 52.596-66.813 94.403-76.18 70.12-14.718 135.458 24.127 157.695 86.576h-7.266c-12.001 0-19.097 13.424-12.479 23.319l59.996 89.994c5.932 8.897 19.028 8.897 24.959 0l59.996-89.994c6.643-9.976-.543-23.319-12.478-23.319z" fill="#ffbf00" opacity="1" data-original="#000000" class=""></path><path d="M287.829 254.135c-8.48-8.51-19.789-13.197-31.829-13.197-4.014 0-7.778-1.553-10.619-4.409-5.751-5.721-5.943-15.269.029-21.21 5.625-5.654 15.556-5.654 21.181 0 5.845 5.889 15.336 5.859 21.21.029 5.874-5.845 5.874-15.351.029-21.21-4.763-4.779-10.615-7.872-16.83-9.964v-18.233c0-8.289-6.709-14.998-14.999-14.998s-14.999 6.709-14.999 14.999v18.229c-6.209 2.091-12.053 5.175-16.801 9.938-17.647 17.586-17.604 46.115-.029 63.629 8.48 8.51 19.789 13.197 31.829 13.197 4.014 0 7.778 1.553 10.619 4.409 5.751 5.721 5.943 15.269-.029 21.21-5.625 5.654-15.556 5.654-21.181 0-5.859-5.874-15.351-5.874-21.21-.029-5.874 5.845-5.874 15.351-.029 21.21 4.81 4.827 10.584 8.261 16.83 10.471v17.725c0 8.29 6.709 14.999 14.999 14.999 8.29 0 14.999-6.709 14.999-14.999V328.21c6.242-2.206 12.009-5.638 16.801-10.445 17.647-17.586 17.604-46.116.029-63.63z" fill="#ffbf00" opacity="1" data-original="#000000" class=""></path></g></svg>