<svg width="42" height="42" viewBox="0 0 42 42" fill="none" xmlns="http://www.w3.org/2000/svg">
<g clip-path="url(#clip0_56_14)">
<path d="M32.5351 15.9407C32.4219 15.7988 32.2845 15.8267 32.2126 15.8557C32.1523 15.8801 32.0142 15.9582 32.0333 16.1539C32.0562 16.389 32.0691 16.6286 32.0716 16.8662C32.0818 17.8521 31.6864 18.8179 30.9866 19.5161C30.2913 20.2097 29.3769 20.5835 28.4031 20.5726C27.0731 20.5556 25.9699 19.8619 25.2129 18.5664C24.5869 17.4951 24.862 16.1135 25.1533 14.6506C25.3238 13.7944 25.5001 12.9089 25.5001 12.0662C25.5001 5.50464 21.0889 1.71906 18.4595 0.0465232C18.4051 0.011988 18.3533 -0.000152588 18.3075 -0.000152588C18.2329 -0.000152588 18.1739 0.0320037 18.1447 0.0516912C18.0883 0.0899177 17.998 0.177035 18.027 0.331254C19.0321 5.66837 16.0343 8.87834 12.8605 12.2767C9.58912 15.7797 5.88123 19.7501 5.88123 26.9108C5.88123 35.231 12.6502 42 20.9705 42C27.8211 42 33.8611 37.2238 35.6586 30.3852C36.8843 25.7223 35.5998 19.7826 32.5351 15.9407ZM21.3469 38.7792C19.2635 38.8742 17.2821 38.127 15.7687 36.68C14.2715 35.2484 13.4128 33.2505 13.4128 31.1986C13.4128 27.3479 14.8851 24.5211 18.8451 20.7684C18.9099 20.7069 18.9763 20.6875 19.0341 20.6875C19.0865 20.6875 19.132 20.7035 19.1632 20.7185C19.2291 20.7502 19.3374 20.8288 19.3228 20.9988C19.1812 22.6464 19.1837 24.0139 19.33 25.0636C19.7041 27.7448 21.6668 29.5463 24.2143 29.5463C25.4633 29.5463 26.653 29.0762 27.5643 28.2227C27.67 28.1236 27.7882 28.1362 27.8334 28.1458C27.8934 28.1588 27.9737 28.1956 28.0158 28.297C28.3936 29.2093 28.5867 30.1777 28.5897 31.1751C28.6017 35.1885 25.3527 38.5997 21.3469 38.7792Z" fill="#FF2B00"/>
</g>
<defs>
<clipPath id="clip0_56_14">
<rect width="42" height="42" fill="white"/>
</clipPath>
</defs>
</svg>
