<svg width="42" height="42" viewBox="0 0 42 42" fill="none" xmlns="http://www.w3.org/2000/svg">
<path d="M37.7491 11.5182H23.4946V18.6964H40.1418V13.9109C40.1418 12.6 39.0727 11.5182 37.7491 11.5182ZM4.26364 11.5182C2.94 11.5182 1.87091 12.5873 1.87091 13.9109V18.6964H18.62V11.5182H4.26364ZM4.26364 21.0891V37.8382C4.26364 39.1618 5.33273 40.2309 6.65637 40.2309H18.62V21.0891H4.26364ZM35.3564 40.2309C36.68 40.2309 37.7491 39.1618 37.7491 37.8382V21.0891H23.4946V40.2309H35.3564ZM21.0127 9.11274C21.0255 9.11274 21.0255 9.12547 21.0255 9.13819H30.5964C33.9055 9.13819 35.3818 7.48365 35.3818 5.46001C35.3818 3.43638 33.8927 1.78183 30.5964 1.78183C27.5036 1.78183 25.0727 3.20729 23.4182 4.86183C21.9418 3.93274 20.0709 3.92001 18.5818 4.81092C16.9273 3.1691 14.5091 1.7691 11.4418 1.7691C8.13273 1.7691 6.65637 3.42365 6.65637 5.44729C6.65637 7.47092 8.13273 9.12547 11.4418 9.12547H21.0127V9.11274ZM32.9636 5.5491C32.9636 6.54183 31.6655 6.74547 30.5709 6.74547H25.1364C25.1236 6.70729 25.0982 6.68183 25.0855 6.64365C26.3073 5.46001 28.14 4.35274 30.5709 4.35274C31.6655 4.35274 32.9636 4.55638 32.9636 5.5491ZM9.04909 5.5491C9.04909 4.55638 10.3473 4.35274 11.4418 4.35274C13.8218 4.35274 15.6291 5.42183 16.8382 6.55456C16.8 6.61819 16.7745 6.68183 16.7364 6.74547H11.4418C10.3473 6.74547 9.04909 6.5291 9.04909 5.5491Z" fill="#01FF80"/>
</svg>
