<svg width="42" height="42" viewBox="0 0 42 42" fill="none" xmlns="http://www.w3.org/2000/svg">
<g clip-path="url(#clip0_56_91)">
<path d="M8.28442 29.2844C8.28442 36.3071 13.9774 42 21 42C28.0227 42 33.7156 36.3071 33.7156 29.2844C33.7156 22.2617 28.0227 16.5688 21 16.5688C13.9774 16.5688 8.28442 22.2617 8.28442 29.2844ZM19.7698 23.2547V21.6549H22.2305V23.2601C23.9626 23.5455 25.2883 25.0526 25.2883 26.8643H22.8275C22.8275 26.2065 22.2925 25.6715 21.6347 25.6715H20.335C19.6781 25.6715 19.1437 26.206 19.1437 26.8628C19.1437 27.5197 19.6781 28.0541 20.335 28.0541H21.6652C23.6789 28.0541 25.3172 29.6924 25.3172 31.7061C25.3172 33.5276 23.9767 35.0417 22.2304 35.3142V36.914H19.7697V35.3174C18.0356 35.0554 16.7021 33.5551 16.7021 31.749H19.1629C19.1629 32.3822 19.6781 32.8974 20.3113 32.8974H21.6652C22.322 32.8974 22.8565 32.3629 22.8565 31.7061C22.8565 31.0492 22.322 30.5148 21.6652 30.5148H20.335C18.3212 30.5148 16.6829 28.8765 16.6829 26.8627C16.6829 25.0414 18.0235 23.5273 19.7698 23.2547Z" fill="#FFBF00"/>
<path d="M23.4761 14.3097C24.6527 14.5027 25.8006 14.8334 26.9081 15.3017C28.3584 15.9152 29.6896 16.7413 30.8788 17.7633V8.40435H33.3497V6.17223L27.1774 0L21.0051 6.17231V8.40443H23.4761V14.3097Z" fill="#FFBF00"/>
<path d="M11.1212 17.7633C12.3104 16.7413 13.6416 15.9152 15.0919 15.3018C16.1994 14.8333 17.3474 14.5027 18.5239 14.3097V12.3411H20.9949V10.109L14.8226 3.93668L8.65027 10.109V12.3411H11.1212V17.7633Z" fill="#FFBF00"/>
</g>
<defs>
<clipPath id="clip0_56_91">
<rect width="42" height="42" fill="white"/>
</clipPath>
</defs>
</svg>
