<svg id="Capa_1" enable-background="new 0 0 512.032 512.032" height="512" viewBox="0 0 512.032 512.032" width="512" xmlns="http://www.w3.org/2000/svg"><g><g id="Page-1_68_"><g id="_x30_69---Multipack" transform="translate(0 -1)"><path id="Shape_373_" d="m509.574 167.141c2.551-4.038 3.135-9.015 1.587-13.534l-26.914-79.471c-7.528-22.837-25.244-40.878-47.94-48.819l-67.592-23.5c-4.067-1.425-8.557-.969-12.254 1.246-14.694 7.75-31.099 11.688-47.71 11.452-16.486.246-32.774-3.607-47.403-11.213-3.806-2.397-8.501-2.919-12.74-1.417l-67.49 23.424c-22.702 7.929-40.431 25.955-47.983 48.785l-.085.273-6.153 2.142c-21.575 7.595-38.669 24.37-46.669 45.798l-4.523 1.57c-22.68 7.99-40.374 26.043-47.906 48.879l-26.931 79.446c-1.534 4.48-.97 9.413 1.536 13.431 2.382 3.872 6.375 6.471 10.88 7.083l62.566 8.721-3.302 67.081-6.596 148.13c-.217 4.293 1.324 8.489 4.267 11.622 2.879 3.029 6.872 4.749 11.051 4.762h244.053c4.175-.016 8.162-1.74 11.034-4.77 2.934-3.115 4.474-7.289 4.267-11.563l-1.51-34.867h37.393c4.226.007 8.268-1.728 11.174-4.796s4.42-7.198 4.186-11.417l-1.604-34.987h40.516c4.205-.014 8.218-1.762 11.093-4.83 2.889-3.077 4.394-7.203 4.164-11.418l-7.68-168.226 6.033-.853c4.523-.542 8.556-3.106 10.965-6.972 2.551-4.039 3.128-9.018 1.57-13.534l-8.021-23.706 49.673-6.989c4.531-.534 8.576-3.095 10.998-6.963zm-156.808-143.667c-2.14 14.278-10.126 27.022-22.042 35.174l-16.299-5.666c-4.038-1.391-8.484-.923-12.143 1.28-4.179 2.272-8.544 4.184-13.047 5.717-13.288-7.787-22.306-21.202-24.499-36.446 14.049 5.378 28.972 8.106 44.015 8.047 15.048.063 29.976-2.687 44.015-8.106zm-71.561 83.149-17.766-6.161c-4.1-1.463-8.638-1.025-12.382 1.195-6.127 3.318-12.626 5.897-19.362 7.68-11.441-8.235-19.093-20.722-21.239-34.654 14.046 5.4 28.975 8.141 44.023 8.081 15.061.062 30.001-2.681 44.058-8.09-2.068 12.279-8.166 23.52-17.332 31.949zm-33.724 15.445c-3.413 16.64-13.559 40.585-44.16 40.585s-40.747-23.893-44.143-40.567c14.079 5.437 29.051 8.192 44.143 8.124 15.1.067 30.078-2.694 44.16-8.142zm-60.757-80.64 60.109-20.898c1.925 16.548 9.007 32.072 20.241 44.373-4.174.503-8.374.766-12.578.785-16.464.237-32.729-3.619-47.334-11.221-3.817-2.371-8.504-2.88-12.74-1.382l-38.938 13.5c7.195-11.736 18.226-20.623 31.223-25.156h.017zm-54.187 51.2 60.058-20.881c1.86 15.04 7.84 29.274 17.28 41.131-2.142.128-4.267.265-6.554.265-16.532.262-32.864-3.635-47.497-11.332-3.782-2.329-8.414-2.825-12.604-1.348l-39.373 13.653c7.118-9.943 17.131-17.447 28.672-21.487h.018zm-114.978 163.456 26.368-77.833c5.86-17.846 19.651-31.974 37.35-38.263l60.143-20.847c3.004 20.233 14.848 60.587 61.884 60.587s58.88-40.337 61.892-60.587l60.126 20.847c17.711 6.269 31.511 20.401 37.359 38.255l26.394 77.841-59.136 8.243-2.56-51.123c-.236-4.713-4.247-8.342-8.96-8.107-4.713.236-8.342 4.247-8.107 8.96l6.656 135.245 5.06 112.529h-237.439l5.026-112.521 6.656-135.27c.152-3.049-1.333-5.947-3.897-7.603s-5.817-1.819-8.533-.427-4.484 4.128-4.636 7.177l-2.517 51.123zm355.618 154.548h-36.343l-2.765-62.148-3.294-67.046 36.267-5.052zm-290.133 85.333.768-17.067h238.933l.759 17.067zm255.292-51.2-.759-17.067h36.369l.777 17.067zm51.132-51.2-.785-17.067h39.45l.777 17.067zm37.879-34.133h-39.424l-3.908-85.419 9.276-1.289c4.518-.599 8.528-3.196 10.923-7.074 2.513-4.025 3.083-8.966 1.553-13.457l-6.946-20.48 22.579-3.166zm-34.133-144.171-14.413-42.513c-7.525-22.822-25.211-40.862-47.881-48.836l-31.787-11.093c9.406-11.855 15.387-26.059 17.297-41.071l60.1 20.89c17.702 6.242 31.502 20.351 37.35 38.187l26.334 77.841zm50.116-50.611-13.235-39.313c-7.526-22.839-25.242-40.88-47.94-48.819l-32.162-11.17c11.493-12.341 18.733-28.038 20.659-44.791l60.066 20.881c17.714 6.232 31.526 20.343 37.376 38.187l26.334 77.841z"/></g></g></g></svg>