<svg xmlns="http://www.w3.org/2000/svg" version="1.1" xmlns:xlink="http://www.w3.org/1999/xlink" width="512" height="512" x="0" y="0" viewBox="0 0 48 48" style="enable-background:new 0 0 512 512" xml:space="preserve" class=""><g><path d="M35 31H13a1 1 0 0 1 0-2h22a1 1 0 0 1 0 2zM35 38H13a1 1 0 0 1 0-2h22a1 1 0 0 1 0 2z" fill="#000000" opacity="1" data-original="#000000" class=""></path><path d="M42 15H16.43l25.181-4.44a1.993 1.993 0 0 0 1.292-.822c.306-.438.424-.968.331-1.495l-.675-3.829c-.111-.629-.377-1.235-.827-1.687a3 3 0 0 0-2.668-.857L5.58 7.774a3.004 3.004 0 0 0-2.433 3.476L4 16.088V41a5 5 0 0 0 5 5h30a5 5 0 0 0 5-5V17a2 2 0 0 0-2-2zm-13.984 7 2.143-5h5.824l-2.143 5zm-8 0 2.143-5h5.824l-2.143 5zm-.032-5-2.143 5h-5.824l2.143-5zM6 22v-5h5.984l-2.143 5zm7.847-8.576-2.979-4.552 5.736-1.011 2.978 4.552-5.736 1.011zm10.635-6.952 2.978 4.552-5.735 1.011-2.979-4.552zm7.879-1.389 2.978 4.552-5.735 1.011-2.978-4.552zm7.05-1.243a.992.992 0 0 1 .747.165.99.99 0 0 1 .411.646l.695 3.939-3.782.667-2.978-4.552 4.908-.865zM5.117 10.902a1 1 0 0 1 .811-1.158l2.797-.493 2.979 4.552-5.893 1.039-.694-3.939zM42 41a3 3 0 0 1-3 3H9a3 3 0 0 1-3-3V24h36zm0-19h-5.984l2.143-5H42z" fill="#000000" opacity="1" data-original="#000000" class=""></path></g></svg>