<svg xmlns="http://www.w3.org/2000/svg" version="1.1" xmlns:xlink="http://www.w3.org/1999/xlink" width="512" height="512" x="0" y="0" viewBox="0 0 512 512" style="enable-background:new 0 0 512 512" xml:space="preserve" class=""><g><path d="M150.888 239.863c-8.69 8.69-8.69 22.816 0 31.506 4.345 4.345 10.049 6.506 15.753 6.506 5.704 0 11.408-2.161 15.753-6.506 8.69-8.69 8.69-22.816 0-31.506-8.69-8.712-22.816-8.712-31.506 0zM311.469 422.725c-12.277 0-22.281 9.982-22.281 22.281s10.004 22.281 22.281 22.281 22.281-9.982 22.281-22.281-10.004-22.281-22.281-22.281zM150.888 61.613c-8.69 8.69-8.69 22.816 0 31.506 4.345 4.345 10.049 6.506 15.753 6.506 5.704 0 11.408-2.161 15.753-6.506 8.69-8.69 8.69-22.816 0-31.506-8.69-8.712-22.816-8.712-31.506 0zM150.888 150.738c-8.69 8.69-8.69 22.816 0 31.506 4.345 4.345 10.049 6.506 15.753 6.506 5.704 0 11.408-2.161 15.753-6.506 8.69-8.69 8.69-22.816 0-31.506-8.69-8.712-22.816-8.712-31.506 0zM311.469 289.038c-12.277 0-22.281 9.982-22.281 22.281s10.004 22.281 22.281 22.281 22.281-9.982 22.281-22.281-10.004-22.281-22.281-22.281zM378.313 355.881c-12.277 0-22.281 9.982-22.281 22.281s10.004 22.281 22.281 22.281 22.281-9.982 22.281-22.281-10.004-22.281-22.281-22.281zM445.156 289.038c-12.277 0-22.281 9.982-22.281 22.281s10.004 22.281 22.281 22.281 22.281-9.982 22.281-22.281c.001-12.299-10.004-22.281-22.281-22.281z" fill="#000000" opacity="1" data-original="#000000"></path><path d="M478.578 244.475H278.047c-3.81 0-7.397.78-10.829 1.961l56.327-56.305c6.283-6.306 9.759-14.706 9.759-23.64 0-8.935-3.476-17.335-9.759-23.64L190.282 9.609c-12.589-12.611-34.692-12.611-47.281 0L9.759 142.85C3.454 149.156 0 157.556 0 166.491s3.454 17.335 9.759 23.64l133.242 133.242c6.306 6.306 14.683 9.781 23.64 9.781s17.335-3.476 23.64-9.781l56.305-56.305c-1.181 3.409-1.961 7.019-1.961 10.829v200.531c0 18.427 14.995 33.422 33.422 33.422h200.531c18.427 0 33.422-14.995 33.422-33.422V277.897c0-18.427-14.995-33.422-33.422-33.422zM174.506 307.62c-4.144 4.189-11.564 4.189-15.731 0L25.512 174.378c-2.094-2.094-3.231-4.88-3.231-7.888s1.136-5.793 3.231-7.865L158.776 25.362c2.072-2.094 4.88-3.231 7.865-3.231 2.986 0 5.793 1.136 7.888 3.231l133.264 133.264c2.072 2.072 3.231 4.857 3.231 7.865s-1.159 5.793-3.231 7.888L174.506 307.62zm315.213 170.808c0 6.127-4.991 11.141-11.141 11.141H278.047c-6.15 0-11.141-5.013-11.141-11.141V277.897c0-6.127 4.991-11.141 11.141-11.141h200.531c6.15 0 11.141 5.013 11.141 11.141v200.531z" fill="#000000" opacity="1" data-original="#000000"></path><path d="M445.156 422.725c-12.277 0-22.281 9.982-22.281 22.281s10.004 22.281 22.281 22.281 22.281-9.982 22.281-22.281c.001-12.299-10.004-22.281-22.281-22.281z" fill="#000000" opacity="1" data-original="#000000"></path></g></svg>