<svg width="42" height="42" viewBox="0 0 42 42" fill="none" xmlns="http://www.w3.org/2000/svg">
<g clip-path="url(#clip0_56_19)">
<path d="M30.8437 14.8481C24.7371 14.8481 19.7695 19.8156 19.7695 25.9221C19.7695 32.0287 24.737 36.9962 30.8436 36.9962C36.9502 36.9962 41.9997 32.0287 41.9997 25.9221C41.9997 19.8156 36.9502 14.8481 30.8437 14.8481ZM32.1065 31.8521C32.0958 31.856 32.0846 31.8542 32.074 31.8579V33.3049C32.074 33.985 31.5236 34.5353 30.8435 34.5353C30.1634 34.5353 29.613 33.985 29.613 33.3049V31.8495C28.8026 31.5757 28.0261 31.0561 27.3623 30.2648C26.925 29.7445 26.9922 28.9682 27.5138 28.532C28.0341 28.0947 28.8127 28.1619 29.2465 28.6835C29.8978 29.4585 30.6344 29.7661 31.2641 29.5402C31.7483 29.3636 32.074 28.8986 32.074 28.3831C32.074 27.7042 31.5224 27.1526 30.8435 27.1526C28.808 27.1526 27.1522 25.4967 27.1522 23.4613C27.1522 21.9749 28.0366 20.6398 29.4052 20.0608C29.473 20.032 29.5448 20.0337 29.6131 20.0092V18.5395C29.6131 17.8594 30.1635 17.309 30.8436 17.309C31.5237 17.309 32.0741 17.8594 32.0741 18.5395V20.0115C32.7112 20.2267 33.3325 20.5689 33.8873 21.1062C34.3751 21.5784 34.3872 22.3571 33.9137 22.8461C33.4414 23.334 32.6616 23.3448 32.1737 22.8725C31.5753 22.2922 30.9132 22.0927 30.3653 22.327C29.9087 22.5205 29.613 22.9651 29.613 23.4614C29.613 24.1403 30.1646 24.6918 30.8435 24.6918C32.879 24.6918 34.5348 26.3477 34.5348 28.3832C34.535 29.9295 33.5592 31.3234 32.1065 31.8521Z" fill="#6690F9"/>
<path d="M1.23084 27.1526C0.550714 27.1526 0.000366211 27.7029 0.000366211 28.3831V40.7696C0.000366211 41.4497 0.550714 42.0001 1.23084 42.0001H4.92216V27.1526H1.23084Z" fill="#6690F9"/>
<path d="M29.183 7.6801L20.5698 0.297374C20.1108 -0.0991653 19.4283 -0.0991653 18.9692 0.297374L10.3561 7.6801C9.9644 8.01414 9.82379 8.55726 10.0028 9.04035C10.1806 9.52343 10.6408 9.84425 11.1564 9.84425H14.8477C14.8477 20.482 14.8477 31.3617 14.8477 42.0001C18.0176 42.0001 20.209 42.0001 23.4609 42.0001C24.141 42.0001 24.6914 41.4497 24.6914 40.7696V37.963C20.3157 35.7179 17.3087 31.1693 17.3087 25.9222C17.3087 20.6752 20.3158 16.1265 24.6914 13.8814V9.84433H28.3827C28.8982 9.84433 29.3585 9.52351 29.5363 9.04043C29.7154 8.55726 29.5748 8.01414 29.183 7.6801Z" fill="#6690F9"/>
<path d="M8.6955 17.309C8.01537 17.309 7.46503 17.8593 7.46503 18.5395V27.1527V42C9.26233 42 10.6418 42 12.3868 42V17.309H8.6955Z" fill="#6690F9"/>
</g>
<defs>
<clipPath id="clip0_56_19">
<rect width="42" height="42" fill="white"/>
</clipPath>
</defs>
</svg>
