<svg width="42" height="42" viewBox="0 0 42 42" fill="none" xmlns="http://www.w3.org/2000/svg">
<g clip-path="url(#clip0_89_123)">
<path d="M31.939 37.1147C32.3808 37.9058 32.0975 38.9053 31.3063 39.3469C30.7899 39.6353 30.2552 39.9048 29.7168 40.1479C29.4977 40.2468 29.2683 40.2937 29.0425 40.2937C28.4174 40.2937 27.8203 39.9346 27.5463 39.3279C27.1734 38.5021 27.5405 37.5304 28.3663 37.1575C28.8201 36.9525 29.2711 36.7252 29.7067 36.4821C30.4979 36.0404 31.4974 36.3237 31.939 37.1147ZM37.6036 31.2277C36.8766 30.6869 35.8489 30.8379 35.3081 31.5648C35.0106 31.9646 34.6923 32.3568 34.362 32.7305C33.7619 33.4093 33.8257 34.4462 34.5045 35.0463C34.8167 35.3222 35.2043 35.4578 35.5905 35.4578C36.0443 35.4578 36.4961 35.2705 36.8203 34.9037C37.2115 34.4612 37.5884 33.9968 37.9407 33.5232C38.4815 32.7963 38.3307 31.7685 37.6036 31.2277ZM40.3474 23.5336C39.4626 23.3409 38.5881 23.9024 38.3954 24.7877C38.2893 25.2747 38.1612 25.7627 38.0143 26.2381C37.7468 27.1039 38.2317 28.0225 39.0974 28.29C39.2588 28.3397 39.4218 28.3635 39.5823 28.3635C40.2828 28.3635 40.9315 27.9111 41.1493 27.2066C41.3237 26.6424 41.4757 26.0634 41.6016 25.4856C41.7943 24.6004 41.2328 23.7264 40.3474 23.5336ZM19.3594 7.875V20.3205L13.3433 26.3365C12.7026 26.9772 12.7026 28.016 13.3433 28.6566C13.6637 28.977 14.0835 29.1372 14.5035 29.1372C14.9233 29.1372 15.3432 28.977 15.6636 28.6566L22.1602 22.1601C22.4678 21.8525 22.6406 21.4351 22.6406 21V7.875C22.6406 6.96888 21.9061 6.23438 21 6.23438C20.0939 6.23438 19.3594 6.96888 19.3594 7.875ZM40.3594 3.52734C39.4533 3.52734 38.7188 4.26185 38.7188 5.16797V9.72366C34.9 3.73472 28.2311 0 21 0C15.3907 0 10.1172 2.18441 6.1507 6.1507C2.18441 10.1172 0 15.3907 0 21C0 26.6093 2.18441 31.8828 6.1507 35.8493C10.1172 39.8156 15.3907 42 21 42C21.0139 42 21.0272 41.9983 21.041 41.9979C21.0548 41.9983 21.0682 42 21.082 42C21.6733 42 22.2704 41.9751 22.8569 41.926C23.7599 41.8504 24.4305 41.0571 24.355 40.1542C24.2793 39.2513 23.4871 38.5803 22.5831 38.6562C22.0873 38.6977 21.5823 38.7188 21.082 38.7188C21.0682 38.7188 21.0548 38.7205 21.041 38.7208C21.0272 38.7205 21.0139 38.7188 21 38.7188C11.2298 38.7188 3.28125 30.7702 3.28125 21C3.28125 11.2298 11.2298 3.28125 21 3.28125C27.2966 3.28125 33.0879 6.63739 36.2526 11.9766H31.7414C30.8353 11.9766 30.1008 12.7111 30.1008 13.6172C30.1008 14.5233 30.8353 15.2578 31.7414 15.2578H36.75C37.7491 15.2578 38.6839 14.977 39.4798 14.4906C39.5309 14.4614 39.5802 14.43 39.6271 14.3961C41.0549 13.4567 42 11.841 42 10.0078V5.16797C42 4.26185 41.2655 3.52734 40.3594 3.52734Z" fill="url(#paint0_linear_89_123)"/>
</g>
<defs>
<linearGradient id="paint0_linear_89_123" x1="0" y1="21" x2="42" y2="21" gradientUnits="userSpaceOnUse">
<stop stop-color="#00F2FE"/>
<stop offset="0.021" stop-color="#03EFFE"/>
<stop offset="0.293" stop-color="#24D2FE"/>
<stop offset="0.554" stop-color="#3CBDFE"/>
<stop offset="0.796" stop-color="#4AB0FE"/>
<stop offset="1" stop-color="#4FACFE"/>
</linearGradient>
<clipPath id="clip0_89_123">
<rect width="42" height="42" fill="white"/>
</clipPath>
</defs>
</svg>
